<?xml version="1.0" standalone="no"?><!DOCTYPE svg PUBLIC "-//W3C//DTD SVG 1.1//EN" "http://www.w3.org/Graphics/SVG/1.1/DTD/svg11.dtd"><svg t="1526709305779" class="icon" style="" viewBox="0 0 1024 1024" version="1.1" xmlns="http://www.w3.org/2000/svg" p-id="3945" xmlns:xlink="http://www.w3.org/1999/xlink" width="32" height="32"><defs><style type="text/css"></style></defs><path d="M528.384 940.098783c-207.09287 0-385.29113-188.705391-370.866087-413.362087l718.246957-0.890435c5.409391 224.634435-150.683826 414.252522-347.38087 414.252522m372.268522-476.827826c-260.563478 0.445217-521.282783-0.311652-781.846261 0.311652-27.759304 3.85113-42.184348 14.024348-50.176 29.406608-8.169739 29.273043 6.90087 52.424348 30.942609 67.762087 0 132.407652 82.231652 293.019826 192.445217 366.413913-20.925217-0.289391-41.850435-0.289391-62.797913-0.133565-33.54713 20.702609-35.862261 71.568696-2.448696 92.271305 190.530783 0.623304 381.217391 0.289391 571.904 0.155826 46.191304-3.227826 46.970435-72.659478 10.329044-92.427131-20.791652 0-41.71687-0.155826-62.508522-0.155826 110.369391-73.416348 184.186435-234.162087 185.254957-366.124522 18.320696-11.241739 22.973217-16.940522 28.315826-26.512695 20.012522-40.626087-23.084522-70.811826-59.414261-70.967652" fill="#5f52a0" p-id="3946"></path><path d="M464.072348 796.40487c38.377739 72.169739 115.177739 106.585043 171.52 76.866782 60.14887-31.721739 72.125217-110.035478 32.500869-184.498087-20.301913-38.177391-76.221217-75.286261-124.482782-101.732174L515.873391 534.26087 389.565217 534.26087l59.481044 112.929391c-4.429913 52.535652-3.962435 113.530435 15.026087 149.214609M349.206261 448.556522c41.405217 1.068522 82.966261 0.601043 124.505043 0A17706.25113 17706.25113 0 0 0 248.542609 24.754087c-8.45913-5.342609-25.243826-15.938783-33.702957-21.147826H178.042435c-31.833043 24.531478-33.235478 68.986435-13.378783 101.620869 62.486261 114.020174 120.208696 230.511304 184.542609 343.329392" fill="#5f52a0" p-id="3947"></path></svg>