<?xml version="1.0" standalone="no"?><!DOCTYPE svg PUBLIC "-//W3C//DTD SVG 1.1//EN" "http://www.w3.org/Graphics/SVG/1.1/DTD/svg11.dtd"><svg t="1497941184985" class="icon" style="" viewBox="0 0 1024 1024" version="1.1" xmlns="http://www.w3.org/2000/svg" p-id="7637" xmlns:xlink="http://www.w3.org/1999/xlink" width="100" height="100"><defs><style type="text/css"></style></defs><path d="M644.542712 565.089126c79.56922-45.945425 133.230374-131.909286 133.230374-230.17431 0-146.475026-119.226428-265.627776-265.773086-265.627776s-265.773086 119.151727-265.773086 265.627776c0 98.265024 53.662177 184.228885 133.230374 230.17431-146.5661 54.058197-251.351632 195.086164-251.351632 360.108614 0 16.294105 13.218046 29.514197 29.53057 29.514197s29.53057-13.220093 29.53057-29.514197c0-167.601182 127.744429-305.953204 291.035446-322.903248l0 161.056116c0 54.243415 44.160779 98.380658 98.434893 98.380658 50.92074 0 92.938716-38.85289 97.93552-88.452541 17.924231-10.134825 30.030967-29.348422 30.030967-51.399647 0-32.600489-26.442232-59.028395-59.061141-59.028395s-59.061141 26.427906-59.061141 59.028395c0 21.408589 11.403724 40.153512 28.470425 50.502208-4.095271 17.356296-19.710924 30.321586-38.315654 30.321586-21.715581 0-39.373753-17.658172-39.373753-39.352263L537.26236 601.517803c167.353542 12.927427 299.571866 153.168472 299.571866 323.679937 0 16.294105 13.217023 29.514197 29.53057 29.514197 16.312524 0 29.53057-13.220093 29.53057-29.514197C895.894344 760.175289 791.107789 619.148345 644.542712 565.089126zM305.287031 334.914816c0-113.925702 92.734054-206.599382 206.711945-206.599382s206.711945 92.673679 206.711945 206.599382-92.734054 206.599382-206.711945 206.599382S305.287031 448.840518 305.287031 334.914816z" p-id="7638" fill="#c1a98d"></path></svg>