<?xml version="1.0" standalone="no"?><!DOCTYPE svg PUBLIC "-//W3C//DTD SVG 1.1//EN" "http://www.w3.org/Graphics/SVG/1.1/DTD/svg11.dtd"><svg t="1526709382852" class="icon" style="" viewBox="0 0 1024 1024" version="1.1" xmlns="http://www.w3.org/2000/svg" p-id="4186" xmlns:xlink="http://www.w3.org/1999/xlink" width="32" height="32"><defs><style type="text/css"></style></defs><path d="M390.286937 282.97998c-17.247826 0-31.233352 13.984503-31.233352 31.233352l0 30.464849c0 17.252943 13.984503 31.233352 31.233352 31.233352s31.233352-13.979386 31.233352-31.233352l0-30.464849C421.520289 296.964482 407.535787 282.97998 390.286937 282.97998z" p-id="4187" fill="#34ACE9"></path><path d="M634.05587 282.97998c-17.247826 0-31.233352 13.984503-31.233352 31.233352l0 30.464849c0 17.252943 13.984503 31.233352 31.233352 31.233352s31.233352-13.979386 31.233352-31.233352l0-30.464849C665.289222 296.964482 651.304719 282.97998 634.05587 282.97998z" p-id="4188" fill="#34ACE9"></path><path d="M588.963882 424.031483c-14.544251-9.31311-33.845853-5.063319-43.148729 9.455349-0.121773 0.193405-13.379729 19.449981-33.967626 19.449981-19.993357 0-32.42755-18.107403-33.271778-19.368116-9.17087-14.436804-28.279067-18.809391-42.828434-9.760295-14.655791 9.099239-19.154245 28.355815-10.04989 43.00649 11.209296 18.046005 41.973974 48.587602 86.150102 48.587602 43.957141 0 75.098395-30.308283 86.571704-48.222281C607.722108 452.652334 603.487667 433.334359 588.963882 424.031483z" p-id="4189" fill="#34ACE9"></path><path d="M747.869009 127.115096c19.652596 0.071631 36.489052 7.060813 54.149271 22.276353 12.988826 12.057617 23.831778 33.672914 31.360242 62.501496 8.04728 30.800493 12.062733 68.098981 11.94096 111.028723 0.061398 23.414269-1.12359 48.700165-3.523243 75.144444-1.555425 17.182334 11.101849 32.371268 28.284183 33.927717 0.960885 0.091074 1.911536 0.132006 2.857071 0.132006 15.977903 0 29.596062-12.190647 31.070646-28.40698 2.572592-28.376281 3.843538-55.613622 3.777023-80.786954 0.14224-48.145533-4.559852-90.816378-13.964036-126.82857-10.69048-40.916898-27.273157-72.033593-49.757241-92.911086-0.132006-0.116657-0.681522-0.604774-0.813528-0.716314-29.382191-25.330922-60.509119-37.70474-94.634334-37.821397l-2.074242-0.020466c-48.369637 0-92.885504 25.417903-140.268674 52.472072-26.560936 15.164375-54.032614 30.841426-80.954777 40.810474-7.940856 2.857071-15.774265 4.306072-23.140023 4.306072-27.227108-0.121773-52.039213-17.314341-81.117482-37.465287l-4.946662-3.420913c-41.180911-28.670993-79.337953-52.405557-129.466654-52.405557-6.231935 0-12.175297 0.60989-17.415648 1.149173l-3.598968 0.361227c-72.984245 7.024997-122.344442 53.529147-138.987494 130.945331-10.090822 46.961568-10.090822 112.883977-10.090822 152.260799-0.005117 16.09456 0.431835 32.523741 1.301645 48.811706 0.914836 17.2335 15.692401 30.440289 32.849152 29.534663 17.223267-0.925069 30.445406-15.626909 29.52443-32.849152-0.808412-15.189957-1.214664-30.490431-1.209548-45.486984 0-36.906561 0-98.670254 8.698103-139.145084 11.051707-51.424206 37.71395-77.446883 83.897805-81.890079l4.001127-0.401136c4.112668-0.421602 8.001231-0.823761 11.224646-0.823761 31.9292 0 58.928111 17.075911 93.719498 41.298592l5.272074 3.65525c34.150798 23.663956 69.466118 48.125067 116.203582 48.338938 14.736633 0 29.683043-2.689249 44.699038-8.093329 32.011064-11.849886 61.749366-28.823466 90.766236-45.390793 39.727817-22.682605 77.248362-44.104497 109.040439-44.104497" p-id="4190" fill="#34ACE9"></path><path d="M865.281115 483.651348c-16.932648-3.213181-33.316803 7.818059-36.576033 24.76708-8.169053 42.417065-18.615986 84.793198-31.05018 125.95876-3.1569 10.462283-6.420223 21.502733-9.790994 32.94125-16.312524 55.257511-34.801621 117.885897-56.797587 165.813466-29.494755 64.255443-48.227398 64.570621-50.362015 64.346517-29.875424-2.745531-54.393841-86.175685-69.049632-136.024-11.372002-38.705534-21.197788-72.124667-35.269271-92.65219-26.703175-38.960337-71.448262-44.145429-101.857852-29.169343-49.198515 24.248264-70.004377 73.863265-88.361467 117.632117-2.785439 6.649444-5.551436 13.237489-8.458649 19.815301l-2.699482 6.212492c-9.378601 21.564132-18.234293 41.939181-26.738991 55.461149-7.990998 12.67774-12.119015 14.447037-12.129248 14.508435-0.010233 0-1.046842-0.061398-4.356214-1.63729-14.56881-6.466272-56.600089-64.062038-92.347245-173.905772-19.912515-59.85318-34.20708-115.079992-43.712571-168.833243-3.004427-16.978696-19.195178-28.294416-36.19434-25.315572-16.983813 2.99931-28.319999 19.205411-25.315572 36.19434 10.039657 56.782238 25.066909 114.89682 45.889143 177.485297 28.574802 87.801718 76.765361 189.462073 125.475759 211.076346 10.181897 4.89038 20.425192 7.381108 30.826076 7.401574 37.19104 0 57.905828-32.869618 64.733327-43.697221 11.036357-17.558911 20.806885-40.037878 31.151487-63.818491l2.622734-6.039553c2.99931-6.771217 5.916756-13.735839 8.860808-20.750603 15.494902-36.94647 30.125111-71.840188 58.378595-85.768409 0.529049-0.243547 12.744255-6.069229 22.718421 8.468882 8.458649 12.343119 17.812691 44.164872 26.855648 74.940806 23.968901 81.559551 51.139727 173.997869 123.279744 180.616614 2.343371 0.213871 4.6366 0.325411 6.918573 0.325411 84.665285-0.020466 127.738289-145.895835 165.849282-275.006378 3.334955-11.305487 6.557346-22.225187 9.68457-32.564673 13.049201-43.210128 24.009833-87.690178 32.585139-132.200928C893.306402 503.293711 882.21888 486.914672 865.281115 483.651348z" p-id="4191" fill="#34ACE9"></path></svg>