<?xml version="1.0" standalone="no"?><!DOCTYPE svg PUBLIC "-//W3C//DTD SVG 1.1//EN" "http://www.w3.org/Graphics/SVG/1.1/DTD/svg11.dtd"><svg t="1497941202733" class="icon" style="" viewBox="0 0 1024 1024" version="1.1" xmlns="http://www.w3.org/2000/svg" p-id="8374" xmlns:xlink="http://www.w3.org/1999/xlink" width="100" height="100"><defs><style type="text/css"></style></defs><path d="M819.383274 801.460578l0 158.572552L662.655743 863.546611c-21.73093 3.546779-44.039006 5.619998-66.945715 5.619998-107.659999 0-204.099445-41.199331-270.648117-106.259092 10.958586 0.627287 21.852704 1.418302 32.992415 1.418302 15.617699 0 31.020504-0.765433 46.252417-1.990331 52.54882 36.173874 118.990045 57.908898 191.399191 57.908898 24.957415 0 49.093115-2.838651 72.355935-7.698333l54.443983 36.31509c-0.058328 0.023536-0.106424 0.053212-0.164752 0.077771l41.120536 27.219945 0-99.053993c84.095303-47.393403 139.79693-129.250736 139.79693-222.458581 0-58.948577-22.500457-113.227808-60.123332-157.294442 2.483564-17.197684 4.204765-34.607192 4.204765-52.391231 0-8.138354-0.873903-16.071024-1.418302-24.082488 69.621661 57.93755 113.25032 139.559523 113.25032 230.269477 0.004093 101.757568-54.824653 192.102203-139.792836 250.312976L819.383274 801.460578zM427.95535 701.42114c-22.906709 0-45.228087-2.073218-66.949808-5.625114l-156.722414 96.487541L204.283128 633.740692c-84.96716-58.237379-139.79386-148.582013-139.79386-250.343675 0-175.634136 162.729222-318.017984 363.466082-318.017984 200.737884 0 363.466082 142.384871 363.466082 318.017984C791.421432 559.037293 628.693234 701.42114 427.95535 701.42114L427.95535 701.42114zM427.95535 121.296577c-169.857573 0-307.547515 118.92967-307.547515 265.5981 0 93.198635 55.697533 175.039595 139.792836 222.464721l0 99.05297 41.120536-27.220968c-0.067538-0.028653-0.12075-0.053212-0.173962-0.082888l54.468542-36.314067c23.248494 4.864798 47.385217 7.699356 72.340585 7.699356 169.857573 0 307.548538-118.90204 307.548538-265.599124C735.503888 240.22727 597.812923 121.296577 427.95535 121.296577L427.95535 121.296577zM609.688391 428.829765c-23.150256 0-41.939181-18.769482-41.939181-41.934065 0-23.155373 18.788925-41.940205 41.939181-41.940205 23.156396 0 41.940205 18.783809 41.940205 41.940205C651.628596 410.060283 632.844787 428.829765 609.688391 428.829765L609.688391 428.829765zM441.933713 428.829765c-23.164582 0-41.940205-18.769482-41.940205-41.934065 0-23.155373 18.775622-41.940205 41.940205-41.940205 23.170722 0 41.940205 18.783809 41.940205 41.940205C483.873917 410.060283 465.103412 428.829765 441.933713 428.829765L441.933713 428.829765zM274.184151 428.829765c-23.171746 0-41.940205-18.769482-41.940205-41.934065 0-23.155373 18.769482-41.940205 41.940205-41.940205 23.164582 0 41.934065 18.783809 41.934065 41.940205C316.118216 410.060283 297.349757 428.829765 274.184151 428.829765L274.184151 428.829765zM274.184151 428.829765" p-id="8375" fill="#c1a98d"></path></svg>