<?xml version="1.0" standalone="no"?><!DOCTYPE svg PUBLIC "-//W3C//DTD SVG 1.1//EN" "http://www.w3.org/Graphics/SVG/1.1/DTD/svg11.dtd"><svg t="1497422896427" class="icon" style="" viewBox="0 0 1024 1024" version="1.1" xmlns="http://www.w3.org/2000/svg" p-id="5098" xmlns:xlink="http://www.w3.org/1999/xlink" width="100" height="100"><defs><style type="text/css"></style></defs><path d="M865.2 191.8h-97c-17.7 0-32 14.3-32 32s14.3 32 32 32h65v639.9H193.3V255.8H256c17.7 0 32-14.3 32-32s-14.3-32-32-32h-94.7c-17.7 0-32 14.3-32 32v703.9c0 17.7 14.3 32 32 32h703.9c17.7 0 32-14.3 32-32V223.8c0-17.7-14.4-32-32-32z" p-id="5099" fill="#ffa11b"></path><path d="M352.1 575.7m-32 0a32 32 0 1 0 64 0 32 32 0 1 0-64 0Z" p-id="5100" fill="#ffa11b"></path><path d="M672.1 575.7m-32 0a32 32 0 1 0 64 0 32 32 0 1 0-64 0Z" p-id="5101" fill="#ffa11b"></path><path d="M513.2 575.7m-32 0a32 32 0 1 0 64 0 32 32 0 1 0-64 0Z" p-id="5102" fill="#ffa11b"></path><path d="M384.1 255h256c9.8 0 19-4.5 25.1-12.1 6.1-7.7 8.3-17.7 6.1-27.2l-30-128C637.9 73.2 625 63 610.1 63h-196c-14.9 0-27.8 10.2-31.2 24.7l-30 128c-2.2 9.5 0 19.5 6.1 27.2 6.1 7.6 15.3 12.1 25.1 12.1z m55.3-128h145.3l15 64H424.4l15-64z" p-id="5103" fill="#ffa11b"></path></svg>