<?xml version="1.0" encoding="UTF-8"?>
<!DOCTYPE svg PUBLIC "-//W3C//DTD SVG 1.1//EN" "http://www.w3.org/Graphics/SVG/1.1/DTD/svg11.dtd">
<!-- Creator: CorelDRAW -->
<svg xmlns="http://www.w3.org/2000/svg" xml:space="preserve" width="36px" height="36px" style="shape-rendering:geometricPrecision; text-rendering:geometricPrecision; image-rendering:optimizeQuality; fill-rule:evenodd; clip-rule:evenodd"
viewBox="0 0 36 36"
 xmlns:xlink="http://www.w3.org/1999/xlink">
 <defs>
  <style type="text/css">
   <![CDATA[
    .fil0 {fill:none}
    .fil1 {fill:#333333}
   ]]>
  </style>
 </defs>
 <g id="图层_x0020_1">
  <metadata id="CorelCorpID_0Corel-Layer"/>
  <rect class="fil0" width="36" height="36"/>
  <path class="fil1" d="M12.698 11.335c-0.366142,-0.46063 -7.1811,-6.90827 -7.1811,-6.90827l-3.10512 2.21102 8.63976 8.6811c0.992126,-0.948425 2.55354,-2.74724 1.64646,-3.98386l0 0zm2.44843 11.2122c-4.82362,-4.84488 -4.9122,-6.22677 -4.84488,-6.5185l-8.59606 -8.6374c-0.861024,1.73976 -3.2126,8.90315 8.84409,20.0894 12.437,11.5394 17.6043,8.29843 18.5799,7.46102l-8.21575 -8.25354c-0.531496,0.0933071 -1.97953,-0.335433 -5.76732,-4.14094l0 0zm6.51024 3.42283l8.16732 8.20394 2.68465 -3.09213c0,0 -6.96614,-7.05472 -6.85748,-7.09252 -1.36535,-0.687402 -3.1689,1.05472 -3.99449,1.98071l0 0zm-7.00157 -21.3992c0.0153543,-0.00354331 0.0259843,-0.0106299 0.0354331,-0.0212598l0.00590551 0.00826772c1.57087,-1.37008 3.54094,-2.3185 5.75669,-2.63858 6.12402,-0.884646 11.8051,3.36024 12.6909,9.48425 0.628346,4.34882 -1.3311,8.47441 -4.7126,10.8177l0.00708661 0.0129921c0,0 -0.276378,1.71024 1.0937,1.40079l0.00826772 0.0129921c3.8752,-2.73071 6.11339,-7.48819 5.38937,-12.5008 -1.02756,-7.11024 -7.62402,-12.0402 -14.7343,-11.0126 -2.55945,0.370866 -4.83661,1.4622 -6.65551,3.04016l0.0188976 0.0224409c-0.0283465,0.205512 -0.177165,1.66063 1.09606,1.37362l0 0zm13.122 12.0543l0 -1.91457 1.07835 0 0 -0.759449 -1.07835 0 0 -5.78268 -1.11732 0 -4.14921 5.78268 0 0.759449 4.14921 0 0 1.91457 1.11732 0zm-4.14921 -2.6752l3.03189 -4.22717 0 4.22717 -3.03189 0zm-4.02874 -0.478346c1.59685,-1.03701 2.35394,-2.08701 2.2748,-3.15118 -0.133465,-1.40906 -1.09134,-2.16732 -2.87362,-2.27362 -1.54252,0 -2.53937,0.785433 -2.99173,2.35394l1.07835 0c0.292913,-1.06299 0.94252,-1.60748 1.95472,-1.63465 1.08898,0 1.63583,0.517323 1.63583,1.55433 0.0791339,0.772441 -0.571654,1.65118 -1.95591,2.63504 -1.24961,0.904724 -2.18031,1.90039 -2.79213,2.99055l0 0.677953 5.94449 0 0 -0.677953 -4.74803 0c0.370866,-0.796063 1.19646,-1.62047 2.47323,-2.47441l0 0z"/>
 </g>
</svg>
