<?xml version="1.0" standalone="no"?><!DOCTYPE svg PUBLIC "-//W3C//DTD SVG 1.1//EN" "http://www.w3.org/Graphics/SVG/1.1/DTD/svg11.dtd"><svg t="1497940963398" class="icon" style="" viewBox="0 0 1024 1024" version="1.1" xmlns="http://www.w3.org/2000/svg" p-id="2896" xmlns:xlink="http://www.w3.org/1999/xlink" width="100" height="100"><defs><style type="text/css"></style></defs><path d="M737.119217 929.654042c-58.918757 0-114.339962-22.963925-156.030778-64.654742-41.690816-41.610872-64.654742-97.012092-64.654742-156.030778 0-58.918757 22.963925-114.339962 64.654742-156.030778 41.610872-41.690816 97.012092-64.654742 156.030778-64.654742 58.918757 0 114.339962 22.963925 156.030778 64.654742 41.690816 41.610872 64.654742 97.032078 64.654742 156.030778 0 58.918757-22.963925 114.339962-64.654742 156.030778C851.539123 906.690117 796.117917 929.654042 737.119217 929.654042zM737.119217 535.749775c-95.513141 0-173.218747 77.705606-173.218747 173.218747 0 95.513141 77.705606 173.218747 173.218747 173.218747 95.513141 0 173.218747-77.705606 173.218747-173.218747C910.337963 613.455381 832.632357 535.749775 737.119217 535.749775zM157.145198 873.393425c-50.124913 0-90.916359-40.791446-90.916359-90.916359L66.22884 241.555711c0-50.124913 40.791446-90.916359 90.916359-90.916359l77.905466 0L235.050665 118.102129c0-13.090836 10.652543-23.74338 23.74338-23.74338 13.090836 0 23.74338 10.652543 23.74338 23.74338l0 32.537224 346.437494 0L628.974918 118.102129c0-13.090836 10.652543-23.74338 23.74338-23.74338 13.090836 0 23.74338 10.652543 23.74338 23.74338l0 32.537224 77.905466 0c50.124913 0 90.916359 40.791446 90.916359 90.916359l0 181.652843L113.715599 423.208554l0 359.268512c0 23.963226 19.48636 43.449585 43.449585 43.449585L457.594884 825.926651c13.030878 0 23.463575 10.192865 23.723394 23.223743 0.139902 6.255621-2.278405 12.231438-6.775257 16.808234-4.616768 4.716698-11.032277 7.434796-17.587689 7.434796L157.145198 873.393425zM157.145198 198.106126c-23.963226 0-43.449585 19.48636-43.449585 43.449585l0 134.18607 684.081143 0 0-134.18607c0-23.963226-19.48636-43.449585-43.449585-43.449585L676.441691 198.106126l0 60.677526c0 13.090836-10.652543 23.74338-23.74338 23.74338-13.090836 0-23.74338-10.652543-23.74338-23.74338l0-60.677526L282.517438 198.106126l0 60.677526c0 13.090836-10.652543 23.74338-23.74338 23.74338-13.090836 0-23.74338-10.652543-23.74338-23.74338l0-60.677526L157.145198 198.106126zM713.375837 732.711902 713.375837 624.567603c0-13.090836 10.652543-23.74338 23.74338-23.74338 13.090836 0 23.74338 10.652543 23.74338 23.74338l0 60.677526 60.677526 0c13.090836 0 23.74338 10.652543 23.74338 23.74338 0 13.090836-10.652543 23.74338-23.74338 23.74338L713.375837 732.731888zM230.653742 732.711902c-13.090836 0-23.74338-10.652543-23.74338-23.74338 0-13.090836 10.652543-23.74338 23.74338-23.74338l140.681523 0c13.090836 0 23.74338 10.652543 23.74338 23.74338 0 13.090836-10.652543 23.74338-23.74338 23.74338L230.653742 732.711902zM230.653742 563.890077c-13.090836 0-23.74338-10.652543-23.74338-23.74338 0-13.090836 10.652543-23.74338 23.74338-23.74338l140.681523 0c13.090836 0 23.74338 10.652543 23.74338 23.74338 0 13.090836-10.652543 23.74338-23.74338 23.74338L230.653742 563.890077z" p-id="2897" fill="#979be6"></path></svg>