<?xml version="1.0" standalone="no"?><!DOCTYPE svg PUBLIC "-//W3C//DTD SVG 1.1//EN" "http://www.w3.org/Graphics/SVG/1.1/DTD/svg11.dtd"><svg t="1497938443218" class="icon" style="" viewBox="0 0 1024 1024" version="1.1" xmlns="http://www.w3.org/2000/svg" p-id="4133" xmlns:xlink="http://www.w3.org/1999/xlink" width="100" height="100"><defs><style type="text/css"></style></defs><path d="M973.084 406.839l-54.68 53.478-149.75-148.547 54.681-53.478c16.629-16.629 42.776-19.017 57.035-4.759l98.642 96.272c13.089 14.241 10.719 40.387-5.928 57.034zM488.19 585.104l254.334-248.391 150.936 147.362-358.903 354.162c-1.186 1.185-5.962 5.944-13.074 7.129-1.185 0-1.185 0-2.388 1.186l-187.766 58.237c-4.758 1.185-10.702 1.185-14.275-2.388-3.556-3.556-4.742-8.316-2.388-14.275l59.439-184.21c0-1.169 0-1.169 1.185-2.372 1.186-5.96 5.944-13.072 8.298-14.274l68.939-62.978M488.19 826.35l-92.715-91.496-24.961 77.254 39.22 39.219 78.456-24.978zM737.784 394.95c-4.759-4.741-14.275-4.741-19.017 0l-281.682 275.724c-5.944 4.741-5.944 14.258 0 19.017 4.758 4.741 14.275 4.741 19.017 0l280.481-275.723c5.944-4.758 5.944-13.073 1.202-19.016zM111.438 933.324c-9.5 0-19-3.573-19-13.073v-751.101c-1.185-17.831 10.702-14.258 23.759-14.258h65.366v24.944c0 9.517 10.686 17.831 21.388 17.831 9.517 0 21.404-8.314 21.404-17.831v-24.944h97.457v24.944c0 9.517 10.686 17.831 21.388 17.831 9.517 0 21.404-8.314 21.404-17.831v-24.944h89.142v24.944c0 9.517 10.686 17.831 21.388 17.831 9.534 0 21.404-8.314 21.404-17.831v-24.944h89.142v24.944c0 9.517 10.703 17.831 21.405 17.831 9.5 0 21.387-8.314 21.387-17.831v-24.944h74.867c9.517 0 15.46 4.742 15.46 14.259v123.602l54.681-53.478v-70.125c0-39.219-29.719-67.736-70.141-67.736h-76.103v-46.366c0-9.517-10.702-17.831-21.405-17.831-9.501 0-21.388 8.314-21.388 17.831v46.349h-89.124v-46.35c0-9.516-10.686-17.831-21.405-17.831-9.518 0-21.388 8.316-21.388 17.831v46.35h-89.124v-46.35c0-9.516-10.702-17.831-21.405-17.831-9.517 0-21.388 8.316-21.388 17.831v46.35h-97.456v-46.35c0-9.516-10.702-17.831-21.405-17.831-9.517 0-21.388 8.316-21.388 17.831v46.35h-64.181c-53.478 0-79.624 28.517-79.624 67.736v749.915c0 39.203 35.647 67.737 76.069 67.737h589.479c40.405 0 70.125-28.535 70.125-67.737v-259.093l-54.682 53.477v206.784c0 9.516-5.944 13.073-15.444 13.073M578.501 441.299z" p-id="4134" fill="#fa6a71"></path><path d="M313.124 470.156h-64.569c-12.311-1.203-19.086-6.13-20.287-14.75 0-11.058 6.74-16.596 20.287-16.596h44.266l-75.628-116.203c0-1.202-0.627-2.454-1.829-3.691-2.472-4.894-4.335-9.822-5.538-14.75 1.203-9.839 6.741-15.359 16.596-16.596 9.822 0 17.205 4.318 22.133 12.921l84.857 127.278 84.857-127.279c4.894-8.602 12.278-12.921 22.133-12.921 9.839 1.237 15.359 6.757 16.596 16.596 0 2.472-1.828 7.383-5.521 14.75-1.236 1.237-1.846 2.472-1.846 3.692l-75.628 116.203h44.266c13.514 0 20.288 5.537 20.288 16.595-1.236 8.619-8.027 13.547-20.288 14.75h-64.569v33.208h64.569c13.514 0 20.288 5.52 20.288 16.596-1.236 8.619-8.027 13.547-20.288 14.75h-64.569v73.781c0 12.312-6.774 18.442-20.287 18.442-13.547 0-20.287-6.131-20.287-18.442v-73.782h-64.569c-12.311-1.203-19.086-6.131-20.287-14.75 0-11.076 6.74-16.596 20.287-16.596h64.569v-33.208z" p-id="4135" fill="#fa6a71"></path></svg>