<?xml version="1.0" encoding="UTF-8"?>
<!DOCTYPE svg PUBLIC "-//W3C//DTD SVG 1.1//EN" "http://www.w3.org/Graphics/SVG/1.1/DTD/svg11.dtd">
<!-- Creator: CorelDRAW -->
<svg xmlns="http://www.w3.org/2000/svg" xml:space="preserve" width="51px" height="51px" style="shape-rendering:geometricPrecision; text-rendering:geometricPrecision; image-rendering:optimizeQuality; fill-rule:evenodd; clip-rule:evenodd"
viewBox="0 0 51 51"
 xmlns:xlink="http://www.w3.org/1999/xlink">
 <defs>
  <style type="text/css">
   <![CDATA[
    .fil0 {fill:none}
    .fil1 {fill:#333333}
   ]]>
  </style>
 </defs>
 <g id="图层_x0020_1">
  <metadata id="CorelCorpID_0Corel-Layer"/>
  <rect class="fil0" width="51" height="51"/>
  <rect class="fil0" x="2.83445" y="2.83445" width="45.3311" height="45.3311"/>
  <path class="fil1" d="M25.5 51c-14.0601,0 -25.5,-11.4399 -25.5,-25.5 0,-14.0601 11.4399,-25.5 25.5,-25.5 14.0618,0 25.5,11.4399 25.5,25.5 0,1.8874 -0.20748,3.76811 -0.614075,5.5936 -0.235925,1.05246 -1.27835,1.71339 -2.33583,1.48081 -1.05413,-0.235925 -1.71841,-1.28169 -1.48248,-2.33583 0.344685,-1.54439 0.520374,-3.13898 0.520374,-4.73858 0,-11.9033 -9.68297,-21.588 -21.588,-21.588 -11.905,0 -21.588,9.68465 -21.588,21.588 0,11.905 9.68297,21.588 21.588,21.588 2.04301,0 4.06093,-0.282776 6.0002,-0.843307 1.03406,-0.304528 2.11998,0.297835 2.42116,1.33691 0.299508,1.0374 -0.299508,2.12165 -1.33691,2.42116 -2.29232,0.662598 -4.675,0.997244 -7.08445,0.997244l0 0zm0 0zm11.7394 -12.1694c-0.460138,0 -0.921949,-0.162303 -1.29341,-0.490256l-12.8671 -11.3746c-0.41998,-0.371457 -0.660925,-0.905217 -0.660925,-1.46575l0 -13.6485c0,-1.07923 0.876772,-1.956 1.956,-1.956 1.07923,0 1.956,0.876772 1.956,1.956l0 12.7667 12.2062 10.7906c0.809843,0.716142 0.886811,1.95098 0.170669,2.76083 -0.386516,0.436713 -0.925295,0.660925 -1.46742,0.660925l0 0zm0 0zm3.21929 4.28848c0,0.811516 0.332972,1.61801 0.90689,2.19193 0.573917,0.573917 1.38041,0.90689 2.19193,0.90689 0.811516,0 1.61801,-0.332972 2.19193,-0.90689 0.572244,-0.573917 0.90689,-1.38041 0.90689,-2.19193 0,-0.811516 -0.334646,-1.61801 -0.90689,-2.19193 -0.573917,-0.572244 -1.38041,-0.90689 -2.19193,-0.90689 -0.811516,0 -1.61801,0.334646 -2.19193,0.90689 -0.573917,0.573917 -0.90689,1.38041 -0.90689,2.19193l0 0z"/>
 </g>
</svg>
