<?xml version="1.0" encoding="UTF-8"?>
<!DOCTYPE svg PUBLIC "-//W3C//DTD SVG 1.1//EN" "http://www.w3.org/Graphics/SVG/1.1/DTD/svg11.dtd">
<!-- Creator: CorelDRAW -->
<svg xmlns="http://www.w3.org/2000/svg" xml:space="preserve" width="36px" height="36px" style="shape-rendering:geometricPrecision; text-rendering:geometricPrecision; image-rendering:optimizeQuality; fill-rule:evenodd; clip-rule:evenodd"
viewBox="0 0 36 52.6072"
 xmlns:xlink="http://www.w3.org/1999/xlink">
 <defs>
  <style type="text/css">
   <![CDATA[
    .fil0 {fill:#333333}
   ]]>
  </style>
 </defs>
 <g id="图层_x0020_1">
  <metadata id="CorelCorpID_0Corel-Layer"/>
  <path class="fil0" d="M25.57 10.43c-1.93825,-1.93652 -4.61521,-3.13779 -7.57005,-3.13779 -2.95656,0 -5.63352,1.20127 -7.57005,3.13779 -1.93825,1.9348 -3.13606,4.61348 -3.13606,7.57177 0,2.95484 1.19781,5.63007 3.13606,7.56832 1.93652,1.93652 4.61348,3.13606 7.57005,3.13606 2.95484,0 5.6318,-1.19954 7.57005,-3.13606 1.93825,-1.93825 3.13606,-4.61348 3.13606,-7.56832 0,-2.95829 -1.19781,-5.63697 -3.13606,-7.57177zm-7.57005 -10.43c4.96903,0 9.47032,2.01592 12.7255,5.2728 3.25861,3.25688 5.2728,7.75645 5.2728,12.7289 0,4.9673 -2.01419,9.47032 -5.2728,12.722l-12.1835 21.8834c0,0 -9.95532,-15.846 -13.371,-21.9835 -3.1982,-3.24825 -5.17269,-7.7064 -5.17269,-12.6219 0,-4.97248 2.01592,-9.47205 5.2728,-12.7289 3.25861,-3.25688 7.75817,-5.2728 12.7289,-5.2728l0 0z"/>
 </g>
</svg>
